<svg width="75" height="24" viewBox="0 0 75 24" fill="none" xmlns="http://www.w3.org/2000/svg" color="#2f2f2f">
<g clip-path="url(#clip0_1_3)">
<path d="M6 17.6L4 16.5V14" stroke="currentColor" stroke-linecap="round" stroke-linejoin="round"/>
<path d="M4 10V7.5L6 6.4" stroke="currentColor" stroke-linecap="round" stroke-linejoin="round"/>
<path d="M10 4.1L12 3L14 4.1" stroke="currentColor" stroke-linecap="round" stroke-linejoin="round"/>
<path d="M18 6.4L20 7.5V10" stroke="currentColor" stroke-linecap="round" stroke-linejoin="round"/>
<path d="M20 14V16.5L18 17.62" stroke="currentColor" stroke-linecap="round" stroke-linejoin="round"/>
<path d="M14 19.9L12 21L10 19.9" stroke="currentColor" stroke-linecap="round" stroke-linejoin="round"/>
<path d="M12 12L14 10.9" stroke="currentColor" stroke-linecap="round" stroke-linejoin="round"/>
<path d="M18 8.6L20 7.5" stroke="currentColor" stroke-linecap="round" stroke-linejoin="round"/>
<path d="M12 12V14.5" stroke="currentColor" stroke-linecap="round" stroke-linejoin="round"/>
<path d="M12 18.5V21" stroke="currentColor" stroke-linecap="round" stroke-linejoin="round"/>
<path d="M12 12L10 10.88" stroke="currentColor" stroke-linecap="round" stroke-linejoin="round"/>
<path d="M6 8.6L4 7.5" stroke="currentColor" stroke-linecap="round" stroke-linejoin="round"/>
</g>
<path d="M27.768 19.08V10.26H28.704V11.412C28.768 11.228 28.852 11.056 28.956 10.896C29.068 10.736 29.2 10.6 29.352 10.488C29.504 10.376 29.672 10.296 29.856 10.248C30.04 10.192 30.228 10.164 30.42 10.164C30.62 10.164 30.816 10.192 31.008 10.248C31.2 10.304 31.372 10.396 31.524 10.524C31.684 10.644 31.816 10.788 31.92 10.956C32.024 11.124 32.108 11.304 32.172 11.496C32.236 11.68 32.276 11.872 32.292 12.072C32.316 12.264 32.328 12.46 32.328 12.66V14.1C32.328 14.3 32.316 14.5 32.292 14.7C32.276 14.892 32.236 15.084 32.172 15.276C32.108 15.46 32.024 15.636 31.92 15.804C31.816 15.972 31.684 16.12 31.524 16.248C31.372 16.368 31.2 16.456 31.008 16.512C30.816 16.568 30.62 16.596 30.42 16.596C30.228 16.596 30.04 16.568 29.856 16.512C29.672 16.464 29.504 16.384 29.352 16.272C29.2 16.16 29.068 16.024 28.956 15.864C28.852 15.704 28.768 15.532 28.704 15.348V19.08H27.768ZM30.048 15.756C30.184 15.756 30.316 15.74 30.444 15.708C30.58 15.676 30.7 15.62 30.804 15.54C30.916 15.46 31.012 15.364 31.092 15.252C31.172 15.14 31.232 15.02 31.272 14.892C31.32 14.764 31.352 14.636 31.368 14.508C31.384 14.372 31.392 14.236 31.392 14.1V12.66C31.392 12.524 31.384 12.392 31.368 12.264C31.352 12.128 31.32 11.996 31.272 11.868C31.232 11.74 31.172 11.62 31.092 11.508C31.012 11.396 30.916 11.3 30.804 11.22C30.7 11.14 30.58 11.084 30.444 11.052C30.316 11.02 30.184 11.004 30.048 11.004C29.912 11.004 29.776 11.02 29.64 11.052C29.512 11.084 29.392 11.14 29.28 11.22C29.176 11.3 29.084 11.396 29.004 11.508C28.924 11.62 28.86 11.74 28.812 11.868C28.772 11.996 28.744 12.128 28.728 12.264C28.712 12.392 28.704 12.524 28.704 12.66V14.1C28.704 14.236 28.712 14.372 28.728 14.508C28.744 14.636 28.772 14.764 28.812 14.892C28.86 15.02 28.924 15.14 29.004 15.252C29.084 15.364 29.176 15.46 29.28 15.54C29.392 15.62 29.512 15.676 29.64 15.708C29.776 15.74 29.912 15.756 30.048 15.756ZM36 16.596C35.784 16.596 35.568 16.572 35.352 16.524C35.144 16.484 34.944 16.412 34.752 16.308C34.568 16.204 34.4 16.072 34.248 15.912C34.104 15.744 33.988 15.564 33.9 15.372C33.812 15.172 33.752 14.964 33.72 14.748C33.688 14.532 33.672 14.316 33.672 14.1V12.66C33.672 12.444 33.688 12.228 33.72 12.012C33.752 11.796 33.812 11.592 33.9 11.4C33.988 11.2 34.104 11.02 34.248 10.86C34.4 10.692 34.568 10.556 34.752 10.452C34.944 10.348 35.144 10.276 35.352 10.236C35.568 10.188 35.784 10.164 36 10.164C36.216 10.164 36.428 10.188 36.636 10.236C36.852 10.276 37.052 10.348 37.236 10.452C37.428 10.556 37.596 10.692 37.74 10.86C37.892 11.02 38.012 11.2 38.1 11.4C38.188 11.592 38.248 11.796 38.28 12.012C38.312 12.228 38.328 12.444 38.328 12.66V14.1C38.328 14.316 38.312 14.532 38.28 14.748C38.248 14.964 38.188 15.172 38.1 15.372C38.012 15.564 37.892 15.744 37.74 15.912C37.596 16.072 37.428 16.204 37.236 16.308C37.052 16.412 36.852 16.484 36.636 16.524C36.428 16.572 36.216 16.596 36 16.596ZM36 15.756C36.136 15.756 36.272 15.74 36.408 15.708C36.544 15.676 36.668 15.624 36.78 15.552C36.892 15.472 36.988 15.376 37.068 15.264C37.156 15.152 37.224 15.032 37.272 14.904C37.32 14.776 37.352 14.644 37.368 14.508C37.384 14.372 37.392 14.236 37.392 14.1V12.66C37.392 12.524 37.384 12.388 37.368 12.252C37.352 12.116 37.32 11.984 37.272 11.856C37.224 11.728 37.156 11.608 37.068 11.496C36.988 11.384 36.892 11.292 36.78 11.22C36.668 11.14 36.544 11.084 36.408 11.052C36.272 11.02 36.136 11.004 36 11.004C35.864 11.004 35.728 11.02 35.592 11.052C35.456 11.084 35.332 11.14 35.22 11.22C35.108 11.292 35.008 11.384 34.92 11.496C34.84 11.608 34.776 11.728 34.728 11.856C34.68 11.984 34.648 12.116 34.632 12.252C34.616 12.388 34.608 12.524 34.608 12.66V14.1C34.608 14.236 34.616 14.372 34.632 14.508C34.648 14.644 34.68 14.776 34.728 14.904C34.776 15.032 34.84 15.152 34.92 15.264C35.008 15.376 35.108 15.472 35.22 15.552C35.332 15.624 35.456 15.676 35.592 15.708C35.728 15.74 35.864 15.756 36 15.756ZM44.208 16.5H43.56C43.376 16.5 43.192 16.484 43.008 16.452C42.832 16.42 42.66 16.364 42.492 16.284C42.332 16.204 42.188 16.1 42.06 15.972C41.932 15.844 41.828 15.7 41.748 15.54C41.668 15.372 41.612 15.2 41.58 15.024C41.548 14.84 41.532 14.656 41.532 14.472V11.1H39.9V10.26H42.468V14.472C42.468 14.624 42.488 14.776 42.528 14.928C42.568 15.08 42.636 15.216 42.732 15.336C42.836 15.448 42.96 15.532 43.104 15.588C43.256 15.636 43.408 15.66 43.56 15.66H44.208V16.5ZM42 9.204C41.896 9.204 41.796 9.192 41.7 9.168C41.604 9.136 41.52 9.084 41.448 9.012C41.376 8.94 41.324 8.856 41.292 8.76C41.268 8.664 41.256 8.564 41.256 8.46C41.256 8.356 41.268 8.256 41.292 8.16C41.324 8.064 41.376 7.98 41.448 7.908C41.52 7.836 41.604 7.784 41.7 7.752C41.796 7.72 41.896 7.704 42 7.704C42.104 7.704 42.204 7.72 42.3 7.752C42.396 7.784 42.48 7.836 42.552 7.908C42.624 7.98 42.676 8.064 42.708 8.16C42.74 8.256 42.756 8.356 42.756 8.46C42.756 8.564 42.74 8.664 42.708 8.76C42.676 8.856 42.624 8.94 42.552 9.012C42.48 9.084 42.396 9.136 42.3 9.168C42.204 9.192 42.104 9.204 42 9.204ZM45.768 16.5V10.26H46.704V11.4C46.768 11.224 46.848 11.056 46.944 10.896C47.048 10.736 47.172 10.6 47.316 10.488C47.468 10.376 47.636 10.296 47.82 10.248C48.004 10.192 48.188 10.164 48.372 10.164C48.572 10.164 48.764 10.192 48.948 10.248C49.14 10.304 49.312 10.396 49.464 10.524C49.616 10.652 49.74 10.8 49.836 10.968C49.94 11.136 50.02 11.316 50.076 11.508C50.14 11.692 50.18 11.884 50.196 12.084C50.22 12.276 50.232 12.468 50.232 12.66V16.5H49.296V12.66C49.296 12.524 49.288 12.392 49.272 12.264C49.256 12.128 49.228 12 49.188 11.88C49.148 11.752 49.088 11.632 49.008 11.52C48.936 11.408 48.848 11.312 48.744 11.232C48.64 11.152 48.524 11.096 48.396 11.064C48.268 11.024 48.136 11.004 48 11.004C47.864 11.004 47.732 11.024 47.604 11.064C47.476 11.096 47.36 11.152 47.256 11.232C47.152 11.312 47.06 11.408 46.98 11.52C46.908 11.632 46.852 11.752 46.812 11.88C46.772 12 46.744 12.128 46.728 12.264C46.712 12.392 46.704 12.524 46.704 12.66V16.5H45.768ZM54.792 16.596C54.616 16.596 54.436 16.572 54.252 16.524C54.076 16.476 53.912 16.4 53.76 16.296C53.616 16.192 53.492 16.064 53.388 15.912C53.292 15.76 53.212 15.6 53.148 15.432C53.092 15.256 53.052 15.08 53.028 14.904C53.004 14.72 52.992 14.536 52.992 14.352V11.1H51.84V10.26H52.992V7.68H53.928V10.26H56.04V11.1H53.928V14.352C53.928 14.456 53.932 14.56 53.94 14.664C53.948 14.768 53.964 14.872 53.988 14.976C54.012 15.072 54.044 15.168 54.084 15.264C54.124 15.352 54.176 15.436 54.24 15.516C54.312 15.596 54.396 15.656 54.492 15.696C54.588 15.736 54.688 15.756 54.792 15.756C54.896 15.756 54.992 15.736 55.08 15.696C55.176 15.656 55.256 15.6 55.32 15.528C55.392 15.456 55.448 15.376 55.488 15.288C55.536 15.192 55.572 15.096 55.596 15C55.62 14.904 55.636 14.808 55.644 14.712C55.66 14.608 55.668 14.508 55.668 14.412V14.34H56.604V14.448C56.604 14.624 56.588 14.8 56.556 14.976C56.524 15.152 56.476 15.324 56.412 15.492C56.356 15.652 56.276 15.804 56.172 15.948C56.068 16.092 55.944 16.216 55.8 16.32C55.656 16.416 55.496 16.484 55.32 16.524C55.144 16.572 54.968 16.596 54.792 16.596ZM57.612 16.5V10.26H58.476V10.824C58.516 10.728 58.564 10.64 58.62 10.56C58.676 10.48 58.74 10.408 58.812 10.344C58.892 10.28 58.98 10.236 59.076 10.212C59.172 10.18 59.268 10.164 59.364 10.164C59.492 10.164 59.612 10.188 59.724 10.236C59.836 10.284 59.932 10.352 60.012 10.44C60.1 10.528 60.168 10.628 60.216 10.74C60.272 10.852 60.316 10.964 60.348 11.076C60.38 10.964 60.42 10.852 60.468 10.74C60.524 10.628 60.592 10.528 60.672 10.44C60.76 10.352 60.86 10.284 60.972 10.236C61.084 10.188 61.2 10.164 61.32 10.164C61.448 10.164 61.572 10.192 61.692 10.248C61.812 10.296 61.912 10.368 61.992 10.464C62.08 10.552 62.148 10.656 62.196 10.776C62.244 10.888 62.284 11.008 62.316 11.136C62.348 11.256 62.368 11.38 62.376 11.508C62.384 11.628 62.388 11.752 62.388 11.88V16.5H61.524V11.88C61.524 11.776 61.516 11.676 61.5 11.58C61.492 11.476 61.468 11.38 61.428 11.292C61.388 11.196 61.328 11.116 61.248 11.052C61.168 10.98 61.08 10.944 60.984 10.944C60.88 10.944 60.788 10.98 60.708 11.052C60.628 11.116 60.568 11.196 60.528 11.292C60.488 11.38 60.46 11.476 60.444 11.58C60.436 11.676 60.432 11.776 60.432 11.88V16.5H59.568V11.88C59.568 11.776 59.56 11.676 59.544 11.58C59.536 11.476 59.512 11.38 59.472 11.292C59.432 11.196 59.372 11.116 59.292 11.052C59.212 10.98 59.12 10.944 59.016 10.944C58.92 10.944 58.832 10.98 58.752 11.052C58.672 11.116 58.612 11.196 58.572 11.292C58.532 11.38 58.504 11.476 58.488 11.58C58.48 11.676 58.476 11.776 58.476 11.88V16.5H57.612ZM66 16.596C65.784 16.596 65.568 16.572 65.352 16.524C65.144 16.484 64.944 16.412 64.752 16.308C64.568 16.204 64.4 16.072 64.248 15.912C64.104 15.744 63.988 15.564 63.9 15.372C63.812 15.172 63.752 14.964 63.72 14.748C63.688 14.532 63.672 14.316 63.672 14.1V12.66C63.672 12.444 63.688 12.228 63.72 12.012C63.752 11.796 63.812 11.592 63.9 11.4C63.988 11.2 64.104 11.02 64.248 10.86C64.4 10.692 64.568 10.556 64.752 10.452C64.944 10.348 65.144 10.276 65.352 10.236C65.568 10.188 65.784 10.164 66 10.164C66.216 10.164 66.428 10.188 66.636 10.236C66.852 10.276 67.052 10.348 67.236 10.452C67.428 10.556 67.596 10.692 67.74 10.86C67.892 11.02 68.012 11.2 68.1 11.4C68.188 11.592 68.248 11.796 68.28 12.012C68.312 12.228 68.328 12.444 68.328 12.66V14.1C68.328 14.316 68.312 14.532 68.28 14.748C68.248 14.964 68.188 15.172 68.1 15.372C68.012 15.564 67.892 15.744 67.74 15.912C67.596 16.072 67.428 16.204 67.236 16.308C67.052 16.412 66.852 16.484 66.636 16.524C66.428 16.572 66.216 16.596 66 16.596ZM66 15.756C66.136 15.756 66.272 15.74 66.408 15.708C66.544 15.676 66.668 15.624 66.78 15.552C66.892 15.472 66.988 15.376 67.068 15.264C67.156 15.152 67.224 15.032 67.272 14.904C67.32 14.776 67.352 14.644 67.368 14.508C67.384 14.372 67.392 14.236 67.392 14.1V12.66C67.392 12.524 67.384 12.388 67.368 12.252C67.352 12.116 67.32 11.984 67.272 11.856C67.224 11.728 67.156 11.608 67.068 11.496C66.988 11.384 66.892 11.292 66.78 11.22C66.668 11.14 66.544 11.084 66.408 11.052C66.272 11.02 66.136 11.004 66 11.004C65.864 11.004 65.728 11.02 65.592 11.052C65.456 11.084 65.332 11.14 65.22 11.22C65.108 11.292 65.008 11.384 64.92 11.496C64.84 11.608 64.776 11.728 64.728 11.856C64.68 11.984 64.648 12.116 64.632 12.252C64.616 12.388 64.608 12.524 64.608 12.66V14.1C64.608 14.236 64.616 14.372 64.632 14.508C64.648 14.644 64.68 14.776 64.728 14.904C64.776 15.032 64.84 15.152 64.92 15.264C65.008 15.376 65.108 15.472 65.22 15.552C65.332 15.624 65.456 15.676 65.592 15.708C65.728 15.74 65.864 15.756 66 15.756ZM71.58 16.596C71.38 16.596 71.184 16.568 70.992 16.512C70.8 16.456 70.624 16.368 70.464 16.248C70.312 16.12 70.184 15.972 70.08 15.804C69.976 15.636 69.892 15.46 69.828 15.276C69.764 15.084 69.72 14.892 69.696 14.7C69.68 14.5 69.672 14.3 69.672 14.1V12.66C69.672 12.46 69.68 12.264 69.696 12.072C69.72 11.872 69.764 11.68 69.828 11.496C69.892 11.304 69.976 11.124 70.08 10.956C70.184 10.788 70.312 10.644 70.464 10.524C70.624 10.396 70.8 10.304 70.992 10.248C71.184 10.192 71.38 10.164 71.58 10.164C71.772 10.164 71.96 10.192 72.144 10.248C72.328 10.296 72.496 10.376 72.648 10.488C72.8 10.6 72.928 10.736 73.032 10.896C73.144 11.056 73.232 11.228 73.296 11.412V7.68H74.232V15.456C74.232 15.496 74.236 15.536 74.244 15.576C74.26 15.616 74.28 15.652 74.304 15.684C74.336 15.708 74.372 15.728 74.412 15.744C74.452 15.752 74.492 15.756 74.532 15.756H74.784V16.596H74.532C74.372 16.596 74.212 16.576 74.052 16.536C73.9 16.496 73.764 16.424 73.644 16.32C73.524 16.208 73.436 16.076 73.38 15.924C73.324 15.772 73.296 15.616 73.296 15.456V15.348C73.232 15.532 73.144 15.704 73.032 15.864C72.928 16.024 72.8 16.16 72.648 16.272C72.496 16.384 72.328 16.464 72.144 16.512C71.96 16.568 71.772 16.596 71.58 16.596ZM71.952 15.756C72.088 15.756 72.22 15.74 72.348 15.708C72.484 15.676 72.604 15.62 72.708 15.54C72.82 15.46 72.916 15.364 72.996 15.252C73.076 15.14 73.136 15.02 73.176 14.892C73.224 14.764 73.256 14.636 73.272 14.508C73.288 14.372 73.296 14.236 73.296 14.1V12.66C73.296 12.524 73.288 12.392 73.272 12.264C73.256 12.128 73.224 11.996 73.176 11.868C73.136 11.74 73.076 11.62 72.996 11.508C72.916 11.396 72.82 11.3 72.708 11.22C72.604 11.14 72.484 11.084 72.348 11.052C72.22 11.02 72.088 11.004 71.952 11.004C71.816 11.004 71.68 11.02 71.544 11.052C71.416 11.084 71.296 11.14 71.184 11.22C71.08 11.3 70.988 11.396 70.908 11.508C70.828 11.62 70.764 11.74 70.716 11.868C70.676 11.996 70.648 12.128 70.632 12.264C70.616 12.392 70.608 12.524 70.608 12.66V14.1C70.608 14.236 70.616 14.372 70.632 14.508C70.648 14.636 70.676 14.764 70.716 14.892C70.764 15.02 70.828 15.14 70.908 15.252C70.988 15.364 71.08 15.46 71.184 15.54C71.296 15.62 71.416 15.676 71.544 15.708C71.68 15.74 71.816 15.756 71.952 15.756Z" fill="currentColor"/>
<defs>
<clipPath id="clip0_1_3">
<rect width="24" height="24" fill="white"/>
</clipPath>
</defs>
</svg>
